<svg width="117" height="42" viewBox="0 0 117 42" fill="none" xmlns="http://www.w3.org/2000/svg">
<path d="M58.4102 17.0801V18H53.8926V17.0801H58.4102ZM54.1211 9.46875V18H52.9902V9.46875H54.1211ZM57.8125 13.1367V14.0566H53.8926V13.1367H57.8125ZM58.3516 9.46875V10.3945H53.8926V9.46875H58.3516ZM60.8242 9V18H59.7344V9H60.8242ZM65.1953 18.1172C64.7539 18.1172 64.3535 18.043 63.9941 17.8945C63.6387 17.7422 63.332 17.5293 63.0742 17.2559C62.8203 16.9824 62.625 16.6582 62.4883 16.2832C62.3516 15.9082 62.2832 15.498 62.2832 15.0527V14.8066C62.2832 14.291 62.3594 13.832 62.5117 13.4297C62.6641 13.0234 62.8711 12.6797 63.1328 12.3984C63.3945 12.1172 63.6914 11.9043 64.0234 11.7598C64.3555 11.6152 64.6992 11.543 65.0547 11.543C65.5078 11.543 65.8984 11.6211 66.2266 11.7773C66.5586 11.9336 66.8301 12.1523 67.041 12.4336C67.252 12.7109 67.4082 13.0391 67.5098 13.418C67.6113 13.793 67.6621 14.2031 67.6621 14.6484V15.1348H62.9277V14.25H66.5781V14.168C66.5625 13.8867 66.5039 13.6133 66.4023 13.3477C66.3047 13.082 66.1484 12.8633 65.9336 12.6914C65.7188 12.5195 65.4258 12.4336 65.0547 12.4336C64.8086 12.4336 64.582 12.4863 64.375 12.5918C64.168 12.6934 63.9902 12.8457 63.8418 13.0488C63.6934 13.252 63.5781 13.5 63.4961 13.793C63.4141 14.0859 63.373 14.4238 63.373 14.8066V15.0527C63.373 15.3535 63.4141 15.6367 63.4961 15.9023C63.582 16.1641 63.7051 16.3945 63.8652 16.5938C64.0293 16.793 64.2266 16.9492 64.457 17.0625C64.6914 17.1758 64.957 17.2324 65.2539 17.2324C65.6367 17.2324 65.9609 17.1543 66.2266 16.998C66.4922 16.8418 66.7246 16.6328 66.9238 16.3711L67.5801 16.8926C67.4434 17.0996 67.2695 17.2969 67.0586 17.4844C66.8477 17.6719 66.5879 17.8242 66.2793 17.9414C65.9746 18.0586 65.6133 18.1172 65.1953 18.1172ZM71.4648 17.2266C71.7227 17.2266 71.9609 17.1738 72.1797 17.0684C72.3984 16.9629 72.5781 16.8184 72.7188 16.6348C72.8594 16.4473 72.9395 16.2344 72.959 15.9961H73.9902C73.9707 16.3711 73.8438 16.7207 73.6094 17.0449C73.3789 17.3652 73.0762 17.625 72.7012 17.8242C72.3262 18.0195 71.9141 18.1172 71.4648 18.1172C70.9883 18.1172 70.5723 18.0332 70.2168 17.8652C69.8652 17.6973 69.5723 17.4668 69.3379 17.1738C69.1074 16.8809 68.9336 16.5449 68.8164 16.166C68.7031 15.7832 68.6465 15.3789 68.6465 14.9531V14.707C68.6465 14.2812 68.7031 13.8789 68.8164 13.5C68.9336 13.1172 69.1074 12.7793 69.3379 12.4863C69.5723 12.1934 69.8652 11.9629 70.2168 11.7949C70.5723 11.627 70.9883 11.543 71.4648 11.543C71.9609 11.543 72.3945 11.6445 72.7656 11.8477C73.1367 12.0469 73.4277 12.3203 73.6387 12.668C73.8535 13.0117 73.9707 13.4023 73.9902 13.8398H72.959C72.9395 13.5781 72.8652 13.3418 72.7363 13.1309C72.6113 12.9199 72.4395 12.752 72.2207 12.627C72.0059 12.498 71.7539 12.4336 71.4648 12.4336C71.1328 12.4336 70.8535 12.5 70.627 12.6328C70.4043 12.7617 70.2266 12.9375 70.0938 13.1602C69.9648 13.3789 69.8711 13.623 69.8125 13.8926C69.7578 14.1582 69.7305 14.4297 69.7305 14.707V14.9531C69.7305 15.2305 69.7578 15.5039 69.8125 15.7734C69.8672 16.043 69.959 16.2871 70.0879 16.5059C70.2207 16.7246 70.3984 16.9004 70.6211 17.0332C70.8477 17.1621 71.1289 17.2266 71.4648 17.2266ZM77.8633 11.6602V12.4922H74.4355V11.6602H77.8633ZM75.5957 10.1191H76.6797V16.4297C76.6797 16.6445 76.7129 16.8066 76.7793 16.916C76.8457 17.0254 76.9316 17.0977 77.0371 17.1328C77.1426 17.168 77.2559 17.1855 77.377 17.1855C77.4668 17.1855 77.5605 17.1777 77.6582 17.1621C77.7598 17.1426 77.8359 17.127 77.8867 17.1152L77.8926 18C77.8066 18.0273 77.6934 18.0527 77.5527 18.0762C77.416 18.1035 77.25 18.1172 77.0547 18.1172C76.7891 18.1172 76.5449 18.0645 76.3223 17.959C76.0996 17.8535 75.9219 17.6777 75.7891 17.4316C75.6602 17.1816 75.5957 16.8457 75.5957 16.4238V10.1191ZM80.2188 12.6562V18H79.1348V11.6602H80.1895L80.2188 12.6562ZM82.1992 11.625L82.1934 12.6328C82.1035 12.6133 82.0176 12.6016 81.9355 12.5977C81.8574 12.5898 81.7676 12.5859 81.666 12.5859C81.416 12.5859 81.1953 12.625 81.0039 12.7031C80.8125 12.7812 80.6504 12.8906 80.5176 13.0312C80.3848 13.1719 80.2793 13.3398 80.2012 13.5352C80.127 13.7266 80.0781 13.9375 80.0547 14.168L79.75 14.3438C79.75 13.9609 79.7871 13.6016 79.8613 13.2656C79.9395 12.9297 80.0586 12.6328 80.2188 12.375C80.3789 12.1133 80.582 11.9102 80.8281 11.7656C81.0781 11.6172 81.375 11.543 81.7188 11.543C81.7969 11.543 81.8867 11.5527 81.9883 11.5723C82.0898 11.5879 82.1602 11.6055 82.1992 11.625ZM82.7969 14.9004V14.7656C82.7969 14.3086 82.8633 13.8848 82.9961 13.4941C83.1289 13.0996 83.3203 12.7578 83.5703 12.4688C83.8203 12.1758 84.123 11.9492 84.4785 11.7891C84.834 11.625 85.2324 11.543 85.6738 11.543C86.1191 11.543 86.5195 11.625 86.875 11.7891C87.2344 11.9492 87.5391 12.1758 87.7891 12.4688C88.043 12.7578 88.2363 13.0996 88.3691 13.4941C88.502 13.8848 88.5684 14.3086 88.5684 14.7656V14.9004C88.5684 15.3574 88.502 15.7812 88.3691 16.1719C88.2363 16.5625 88.043 16.9043 87.7891 17.1973C87.5391 17.4863 87.2363 17.7129 86.8809 17.877C86.5293 18.0371 86.1309 18.1172 85.6855 18.1172C85.2402 18.1172 84.8398 18.0371 84.4844 17.877C84.1289 17.7129 83.8242 17.4863 83.5703 17.1973C83.3203 16.9043 83.1289 16.5625 82.9961 16.1719C82.8633 15.7812 82.7969 15.3574 82.7969 14.9004ZM83.8809 14.7656V14.9004C83.8809 15.2168 83.918 15.5156 83.9922 15.7969C84.0664 16.0742 84.1777 16.3203 84.3262 16.5352C84.4785 16.75 84.668 16.9199 84.8945 17.0449C85.1211 17.166 85.3848 17.2266 85.6855 17.2266C85.9824 17.2266 86.2422 17.166 86.4648 17.0449C86.6914 16.9199 86.8789 16.75 87.0273 16.5352C87.1758 16.3203 87.2871 16.0742 87.3613 15.7969C87.4395 15.5156 87.4785 15.2168 87.4785 14.9004V14.7656C87.4785 14.4531 87.4395 14.1582 87.3613 13.8809C87.2871 13.5996 87.1738 13.3516 87.0215 13.1367C86.873 12.918 86.6855 12.7461 86.459 12.6211C86.2363 12.4961 85.9746 12.4336 85.6738 12.4336C85.377 12.4336 85.1152 12.4961 84.8887 12.6211C84.666 12.7461 84.4785 12.918 84.3262 13.1367C84.1777 13.3516 84.0664 13.5996 83.9922 13.8809C83.918 14.1582 83.8809 14.4531 83.8809 14.7656ZM91.0117 13.0137V18H89.9277V11.6602H90.9531L91.0117 13.0137ZM90.7539 14.5898L90.3027 14.5723C90.3066 14.1387 90.3711 13.7383 90.4961 13.3711C90.6211 13 90.7969 12.6777 91.0234 12.4043C91.25 12.1309 91.5195 11.9199 91.832 11.7715C92.1484 11.6191 92.498 11.543 92.8809 11.543C93.1934 11.543 93.4746 11.5859 93.7246 11.6719C93.9746 11.7539 94.1875 11.8867 94.3633 12.0703C94.543 12.2539 94.6797 12.4922 94.7734 12.7852C94.8672 13.0742 94.9141 13.4277 94.9141 13.8457V18H93.8242V13.834C93.8242 13.502 93.7754 13.2363 93.6777 13.0371C93.5801 12.834 93.4375 12.6875 93.25 12.5977C93.0625 12.5039 92.832 12.457 92.5586 12.457C92.2891 12.457 92.043 12.5137 91.8203 12.627C91.6016 12.7402 91.4121 12.8965 91.252 13.0957C91.0957 13.2949 90.9727 13.5234 90.8828 13.7812C90.7969 14.0352 90.7539 14.3047 90.7539 14.5898ZM97.7383 11.6602V18H96.6484V11.6602H97.7383ZM96.5664 9.97852C96.5664 9.80273 96.6191 9.6543 96.7246 9.5332C96.834 9.41211 96.9941 9.35156 97.2051 9.35156C97.4121 9.35156 97.5703 9.41211 97.6797 9.5332C97.793 9.6543 97.8496 9.80273 97.8496 9.97852C97.8496 10.1465 97.793 10.291 97.6797 10.4121C97.5703 10.5293 97.4121 10.5879 97.2051 10.5879C96.9941 10.5879 96.834 10.5293 96.7246 10.4121C96.6191 10.291 96.5664 10.1465 96.5664 9.97852ZM102.016 17.2266C102.273 17.2266 102.512 17.1738 102.73 17.0684C102.949 16.9629 103.129 16.8184 103.27 16.6348C103.41 16.4473 103.49 16.2344 103.51 15.9961H104.541C104.521 16.3711 104.395 16.7207 104.16 17.0449C103.93 17.3652 103.627 17.625 103.252 17.8242C102.877 18.0195 102.465 18.1172 102.016 18.1172C101.539 18.1172 101.123 18.0332 100.768 17.8652C100.416 17.6973 100.123 17.4668 99.8887 17.1738C99.6582 16.8809 99.4844 16.5449 99.3672 16.166C99.2539 15.7832 99.1973 15.3789 99.1973 14.9531V14.707C99.1973 14.2812 99.2539 13.8789 99.3672 13.5C99.4844 13.1172 99.6582 12.7793 99.8887 12.4863C100.123 12.1934 100.416 11.9629 100.768 11.7949C101.123 11.627 101.539 11.543 102.016 11.543C102.512 11.543 102.945 11.6445 103.316 11.8477C103.688 12.0469 103.979 12.3203 104.189 12.668C104.404 13.0117 104.521 13.4023 104.541 13.8398H103.51C103.49 13.5781 103.416 13.3418 103.287 13.1309C103.162 12.9199 102.99 12.752 102.771 12.627C102.557 12.498 102.305 12.4336 102.016 12.4336C101.684 12.4336 101.404 12.5 101.178 12.6328C100.955 12.7617 100.777 12.9375 100.645 13.1602C100.516 13.3789 100.422 13.623 100.363 13.8926C100.309 14.1582 100.281 14.4297 100.281 14.707V14.9531C100.281 15.2305 100.309 15.5039 100.363 15.7734C100.418 16.043 100.51 16.2871 100.639 16.5059C100.771 16.7246 100.949 16.9004 101.172 17.0332C101.398 17.1621 101.68 17.2266 102.016 17.2266Z" fill="#DC8D44"/>
<path d="M55.2344 29.4219L56.9277 23.4688H57.748L57.2734 25.7832L55.4512 32H54.6367L55.2344 29.4219ZM53.4824 23.4688L54.8301 29.3047L55.2344 32H54.4258L52.3574 23.4688H53.4824ZM59.9395 29.2988L61.2578 23.4688H62.3887L60.3262 32H59.5176L59.9395 29.2988ZM57.8711 23.4688L59.5176 29.4219L60.1152 32H59.3008L57.543 25.7832L57.0625 23.4688H57.8711ZM63.0039 28.9004V28.7656C63.0039 28.3086 63.0703 27.8848 63.2031 27.4941C63.3359 27.0996 63.5273 26.7578 63.7773 26.4688C64.0273 26.1758 64.3301 25.9492 64.6855 25.7891C65.041 25.625 65.4395 25.543 65.8809 25.543C66.3262 25.543 66.7266 25.625 67.082 25.7891C67.4414 25.9492 67.7461 26.1758 67.9961 26.4688C68.25 26.7578 68.4434 27.0996 68.5762 27.4941C68.709 27.8848 68.7754 28.3086 68.7754 28.7656V28.9004C68.7754 29.3574 68.709 29.7812 68.5762 30.1719C68.4434 30.5625 68.25 30.9043 67.9961 31.1973C67.7461 31.4863 67.4434 31.7129 67.0879 31.877C66.7363 32.0371 66.3379 32.1172 65.8926 32.1172C65.4473 32.1172 65.0469 32.0371 64.6914 31.877C64.3359 31.7129 64.0312 31.4863 63.7773 31.1973C63.5273 30.9043 63.3359 30.5625 63.2031 30.1719C63.0703 29.7812 63.0039 29.3574 63.0039 28.9004ZM64.0879 28.7656V28.9004C64.0879 29.2168 64.125 29.5156 64.1992 29.7969C64.2734 30.0742 64.3848 30.3203 64.5332 30.5352C64.6855 30.75 64.875 30.9199 65.1016 31.0449C65.3281 31.166 65.5918 31.2266 65.8926 31.2266C66.1895 31.2266 66.4492 31.166 66.6719 31.0449C66.8984 30.9199 67.0859 30.75 67.2344 30.5352C67.3828 30.3203 67.4941 30.0742 67.5684 29.7969C67.6465 29.5156 67.6855 29.2168 67.6855 28.9004V28.7656C67.6855 28.4531 67.6465 28.1582 67.5684 27.8809C67.4941 27.5996 67.3809 27.3516 67.2285 27.1367C67.0801 26.918 66.8926 26.7461 66.666 26.6211C66.4434 26.4961 66.1816 26.4336 65.8809 26.4336C65.584 26.4336 65.3223 26.4961 65.0957 26.6211C64.873 26.7461 64.6855 26.918 64.5332 27.1367C64.3848 27.3516 64.2734 27.5996 64.1992 27.8809C64.125 28.1582 64.0879 28.4531 64.0879 28.7656ZM71.2188 26.6562V32H70.1348V25.6602H71.1895L71.2188 26.6562ZM73.1992 25.625L73.1934 26.6328C73.1035 26.6133 73.0176 26.6016 72.9355 26.5977C72.8574 26.5898 72.7676 26.5859 72.666 26.5859C72.416 26.5859 72.1953 26.625 72.0039 26.7031C71.8125 26.7812 71.6504 26.8906 71.5176 27.0312C71.3848 27.1719 71.2793 27.3398 71.2012 27.5352C71.127 27.7266 71.0781 27.9375 71.0547 28.168L70.75 28.3438C70.75 27.9609 70.7871 27.6016 70.8613 27.2656C70.9395 26.9297 71.0586 26.6328 71.2188 26.375C71.3789 26.1133 71.582 25.9102 71.8281 25.7656C72.0781 25.6172 72.375 25.543 72.7188 25.543C72.7969 25.543 72.8867 25.5527 72.9883 25.5723C73.0898 25.5879 73.1602 25.6055 73.1992 25.625ZM75.291 23V32H74.2012V23H75.291ZM79.1641 25.6602L76.3984 28.6191L74.8516 30.2246L74.7637 29.0703L75.8711 27.7461L77.8398 25.6602H79.1641ZM78.1738 32L75.9121 28.9766L76.4746 28.0098L79.4512 32H78.1738ZM81.9004 32H80.8164V24.9922C80.8164 24.5352 80.9004 24.1504 81.0684 23.8379C81.2402 23.5215 81.4863 23.2832 81.8066 23.123C82.1309 22.959 82.5234 22.877 82.9844 22.877C83.1562 22.877 83.3711 22.8945 83.6289 22.9297C83.8906 22.9648 84.168 23.0098 84.4609 23.0645C84.7578 23.1191 85.0469 23.1758 85.3281 23.2344L84.8242 24.0195C84.4531 23.9492 84.1191 23.8965 83.8223 23.8613C83.5254 23.8223 83.2734 23.8027 83.0664 23.8027C82.8125 23.8027 82.5977 23.8496 82.4219 23.9434C82.25 24.0332 82.1191 24.166 82.0293 24.3418C81.9434 24.5176 81.9004 24.7344 81.9004 24.9922V32ZM84.2441 32V23.2344H85.3281V32H84.2441ZM83.248 25.6602V26.4922H79.8145V25.6602H83.248ZM86.8164 28.9004V28.7656C86.8164 28.3086 86.8828 27.8848 87.0156 27.4941C87.1484 27.0996 87.3398 26.7578 87.5898 26.4688C87.8398 26.1758 88.1426 25.9492 88.498 25.7891C88.8535 25.625 89.252 25.543 89.6934 25.543C90.1387 25.543 90.5391 25.625 90.8945 25.7891C91.2539 25.9492 91.5586 26.1758 91.8086 26.4688C92.0625 26.7578 92.2559 27.0996 92.3887 27.4941C92.5215 27.8848 92.5879 28.3086 92.5879 28.7656V28.9004C92.5879 29.3574 92.5215 29.7812 92.3887 30.1719C92.2559 30.5625 92.0625 30.9043 91.8086 31.1973C91.5586 31.4863 91.2559 31.7129 90.9004 31.877C90.5488 32.0371 90.1504 32.1172 89.7051 32.1172C89.2598 32.1172 88.8594 32.0371 88.5039 31.877C88.1484 31.7129 87.8438 31.4863 87.5898 31.1973C87.3398 30.9043 87.1484 30.5625 87.0156 30.1719C86.8828 29.7812 86.8164 29.3574 86.8164 28.9004ZM87.9004 28.7656V28.9004C87.9004 29.2168 87.9375 29.5156 88.0117 29.7969C88.0859 30.0742 88.1973 30.3203 88.3457 30.5352C88.498 30.75 88.6875 30.9199 88.9141 31.0449C89.1406 31.166 89.4043 31.2266 89.7051 31.2266C90.002 31.2266 90.2617 31.166 90.4844 31.0449C90.7109 30.9199 90.8984 30.75 91.0469 30.5352C91.1953 30.3203 91.3066 30.0742 91.3809 29.7969C91.459 29.5156 91.498 29.2168 91.498 28.9004V28.7656C91.498 28.4531 91.459 28.1582 91.3809 27.8809C91.3066 27.5996 91.1934 27.3516 91.041 27.1367C90.8926 26.918 90.7051 26.7461 90.4785 26.6211C90.2559 26.4961 89.9941 26.4336 89.6934 26.4336C89.3965 26.4336 89.1348 26.4961 88.9082 26.6211C88.6855 26.7461 88.498 26.918 88.3457 27.1367C88.1973 27.3516 88.0859 27.5996 88.0117 27.8809C87.9375 28.1582 87.9004 28.4531 87.9004 28.7656ZM95.5527 30.875L97.1816 25.6602H97.8965L97.7559 26.6973L96.0977 32H95.4004L95.5527 30.875ZM94.457 25.6602L95.8457 30.9336L95.9453 32H95.2129L93.373 25.6602H94.457ZM99.4551 30.8926L100.779 25.6602H101.857L100.018 32H99.291L99.4551 30.8926ZM98.0547 25.6602L99.6484 30.7871L99.8301 32H99.1387L97.4336 26.6855L97.293 25.6602H98.0547ZM106.662 30.3184C106.662 30.1621 106.627 30.0176 106.557 29.8848C106.49 29.748 106.352 29.625 106.141 29.5156C105.934 29.4023 105.621 29.3047 105.203 29.2227C104.852 29.1484 104.533 29.0605 104.248 28.959C103.967 28.8574 103.727 28.7344 103.527 28.5898C103.332 28.4453 103.182 28.2754 103.076 28.0801C102.971 27.8848 102.918 27.6562 102.918 27.3945C102.918 27.1445 102.973 26.9082 103.082 26.6855C103.195 26.4629 103.354 26.2656 103.557 26.0938C103.764 25.9219 104.012 25.7871 104.301 25.6895C104.59 25.5918 104.912 25.543 105.268 25.543C105.775 25.543 106.209 25.6328 106.568 25.8125C106.928 25.9922 107.203 26.2324 107.395 26.5332C107.586 26.8301 107.682 27.1602 107.682 27.5234H106.598C106.598 27.3477 106.545 27.1777 106.439 27.0137C106.338 26.8457 106.188 26.707 105.988 26.5977C105.793 26.4883 105.553 26.4336 105.268 26.4336C104.967 26.4336 104.723 26.4805 104.535 26.5742C104.352 26.6641 104.217 26.7793 104.131 26.9199C104.049 27.0605 104.008 27.209 104.008 27.3652C104.008 27.4824 104.027 27.5879 104.066 27.6816C104.109 27.7715 104.184 27.8555 104.289 27.9336C104.395 28.0078 104.543 28.0781 104.734 28.1445C104.926 28.2109 105.17 28.2773 105.467 28.3438C105.986 28.4609 106.414 28.6016 106.75 28.7656C107.086 28.9297 107.336 29.1309 107.5 29.3691C107.664 29.6074 107.746 29.8965 107.746 30.2363C107.746 30.5137 107.688 30.7676 107.57 30.998C107.457 31.2285 107.291 31.4277 107.072 31.5957C106.857 31.7598 106.6 31.8887 106.299 31.9824C106.002 32.0723 105.668 32.1172 105.297 32.1172C104.738 32.1172 104.266 32.0176 103.879 31.8184C103.492 31.6191 103.199 31.3613 103 31.0449C102.801 30.7285 102.701 30.3945 102.701 30.043H103.791C103.807 30.3398 103.893 30.5762 104.049 30.752C104.205 30.9238 104.396 31.0469 104.623 31.1211C104.85 31.1914 105.074 31.2266 105.297 31.2266C105.594 31.2266 105.842 31.1875 106.041 31.1094C106.244 31.0312 106.398 30.9238 106.504 30.7871C106.609 30.6504 106.662 30.4941 106.662 30.3184Z" fill="#DC8D44"/>
<line x1="45.5" y1="9.5" x2="45.5" y2="31.5" stroke="#DC8D44" stroke-linecap="round"/>
<path d="M37.9762 9.42575C37.9697 9.3965 37.9697 9.36507 37.9577 9.33693C37.9025 9.20262 37.7963 9.09643 37.662 9.04118C37.6338 9.02925 37.6035 9.03037 37.5732 9.02275C37.5363 9.01518 37.4995 9 37.4583 9H20.125C20.0936 9 20.0654 9.013 20.0351 9.01843C19.9961 9.02493 19.956 9.026 19.9191 9.04118C19.8519 9.06937 19.7924 9.10837 19.7414 9.15925L12.1582 16.7426C12.1539 16.7469 12.1527 16.7534 12.1474 16.7578C12.1041 16.8043 12.0661 16.8574 12.0412 16.917C12.0141 16.9853 12 17.0557 12 17.1272V34.4584C12 34.7573 12.2427 35 12.5417 35H29.875C29.9454 35 30.0158 34.9859 30.0819 34.9577C30.1426 34.9328 30.1946 34.8949 30.2422 34.8516C30.2466 34.8472 30.2531 34.8461 30.2574 34.8418L37.8408 27.2585C37.8906 27.2087 37.9307 27.148 37.9577 27.0819C37.9729 27.044 37.9751 27.005 37.9816 26.9649C37.987 26.9346 38 26.9064 38 26.875V9.54168C38 9.5005 37.9848 9.46368 37.9762 9.42575ZM29.3333 33.9167H13.0833V17.6667H29.3333V33.9167ZM29.6508 16.5833H13.8493L20.3493 10.0833H36.1508L29.6508 16.5833ZM36.9167 26.6508L30.4167 33.1508V17.3493L36.9167 10.8493V26.6508Z" fill="#DC8D44"/>
<rect x="0.5" y="0.5" width="116" height="41" stroke="#DC8D44"/>
</svg>
